# xmcd
#
# Track frame offsets:
#	150
#	11815
#	22003
#	32757
#	45762
#	56918
#	70756
#	81843
#	92160
#	103428
#	113973
#	125113
#	137727
#	149226
#	160153
#	171393
#	185907
#	196996
#
# Disc length: 2778 seconds
#
# Revision: 1
# Processed by: cddbd v1.5.1PL2 Copyright (c) Steve Scherf et al.
# Submitted via: audiograbber 1.83.01
#
DISCID=150ad812
DTITLE=Patsy Cline - 18 Greatest
DYEAR=1900
DGENRE=Country
TTITLE0=Walkin' After Midnight
TTITLE1=Three Cigarettes In An Ashtray
TTITLE2=Honky Tonk Merry Go Round
TTITLE3=Just a Closer Walk with Thee
TTITLE4=There He Goes
TTITLE5=A Church, A Courtroom, And Then Goodbye
TTITLE6=I Cried All The Way To the Altar
TTITLE7=Walking Dream
TTITLE8=Hungry For Love
TTITLE9=Lovesick Blues
TTITLE10=A Stranger In My Arms
TTITLE11=Finger Prints
TTITLE12=Just Out Of Reach
TTITLE13=I Don't Wanta
TTITLE14=Hidin' Out
TTITLE15=Then You'll Know
TTITLE16=Stop The World And Let Me Off
TTITLE17=Crazy Dreams
EXTD=
EXTT0=
EXTT1=
EXTT2=
EXTT3=
EXTT4=
EXTT5=
EXTT6=
EXTT7=
EXTT8=
EXTT9=
EXTT10=
EXTT11=
EXTT12=
EXTT13=
EXTT14=
EXTT15=
EXTT16=
EXTT17=
PLAYORDER=
